<svg width="50" height="50" viewBox="0 0 50 50" fill="none" xmlns="http://www.w3.org/2000/svg">
<rect width="50" height="50" rx="10" fill="#008819"/>
<path d="M10.9903 30.4019L10.9099 30H10.5H8H7.5V30.5V33V33.2071L7.64645 33.3536L10.1464 35.8536L10.2535 35.9606L10.4019 35.9903L15.4019 36.9903L15.5 37.0099L15.5981 36.9903L20.5981 35.9903L20.7767 35.9546L20.8904 35.8123L22.8904 33.3123L23 33.1754V33V30.5V28V27.7929L22.8536 27.6464L19.8536 24.6464L19.7556 24.5485L19.6213 24.5149L15.6325 23.5177L11 22.128V18.372L15.4921 17.0244L19.5815 18.3875L20.0149 20.1213L20.1096 20.5H20.5H22.5H23V20V18V17.8246L22.8904 17.6877L20.8904 15.1877L20.793 15.0659L20.6437 15.0211L15.6437 13.5211L15.5 13.478L15.3563 13.5211L10.3563 15.0211L10.2356 15.0573L10.1464 15.1464L7.64645 17.6464L7.5 17.7929V18V22.5V22.7071L7.64645 22.8536L10.1464 25.3536L10.219 25.4261L10.3143 25.4642L15.3143 27.4642L15.338 27.4737L15.3626 27.4808L18.7009 28.4346L20 30.1667V31.5V32.5901L15.5054 33.489L11.4264 32.5826L10.9903 30.4019Z" stroke="black"/>
<path d="M29.9903 30.4019L29.9099 30H29.5H27H26.5V30.5V33V33.2071L26.6464 33.3536L29.1464 35.8536L29.2535 35.9606L29.4019 35.9903L34.4019 36.9903L34.5 37.0099L34.5981 36.9903L39.5981 35.9903L39.7767 35.9546L39.8904 35.8123L41.8904 33.3123L42 33.1754V33V30.5V28V27.7929L41.8536 27.6464L38.8536 24.6464L38.7556 24.5485L38.6213 24.5149L34.6325 23.5177L30 22.128V18.372L34.4921 17.0244L38.5815 18.3875L39.0149 20.1213L39.1096 20.5H39.5H41.5H42V20V18V17.8246L41.8904 17.6877L39.8904 15.1877L39.793 15.0659L39.6437 15.0211L34.6437 13.5211L34.5 13.478L34.3563 13.5211L29.3563 15.0211L29.2356 15.0573L29.1464 15.1464L26.6464 17.6464L26.5 17.7929V18V22.5V22.7071L26.6464 22.8536L29.1464 25.3536L29.219 25.4261L29.3143 25.4642L34.3143 27.4642L34.338 27.4737L34.3626 27.4808L37.7009 28.4346L39 30.1667V31.5V32.5901L34.5054 33.489L30.4264 32.5826L29.9903 30.4019Z" stroke="black"/>
</svg>
