<svg width="158" height="142" viewBox="0 0 158 142" fill="none" xmlns="http://www.w3.org/2000/svg">
<path opacity="0.9" d="M26.9998 56C24.0498 67.7 7.09981 62.67 3.62981 74C0.169814 85.35 11.6598 94 21.1598 94" stroke="#2A3544" stroke-width="6"/>
<path opacity="0.9" d="M139 99.0002C147.4 102.49 159.1 91.4002 155 82.5002C150.9 73.6002 139 75.8002 139 63.2002" stroke="#2A3544" stroke-width="4"/>
<mask id="mask0_145_10125" style="mask-type:luminance" maskUnits="userSpaceOnUse" x="10" y="50" width="138" height="58">
<path d="M24 79H12C10.8954 79 10 79.8954 10 81V99C10 100.105 10.8954 101 12 101H24C25.1046 101 26 100.105 26 99V81C26 79.8954 25.1046 79 24 79Z" fill="white"/>
<path d="M146 86H127C125.895 86 125 86.8954 125 88V106C125 107.105 125.895 108 127 108H146C147.105 108 148 107.105 148 106V88C148 86.8954 147.105 86 146 86Z" fill="white"/>
<path d="M146 50H127C125.895 50 125 50.8954 125 52V66C125 67.1046 125.895 68 127 68H146C147.105 68 148 67.1046 148 66V52C148 50.8954 147.105 50 146 50Z" fill="white"/>
</mask>
<g mask="url(#mask0_145_10125)">
<path d="M-11 44H169V120H-11V44Z" fill="#008819"/>
<path d="M-11 44H169V120H-11V44Z" fill="white" fill-opacity="0.3"/>
</g>
<mask id="mask1_145_10125" style="mask-type:luminance" maskUnits="userSpaceOnUse" x="40" y="0" width="80" height="30">
<path d="M40 20C40 18.9 40.9 18 42 18H118C118.53 18 119.039 18.2107 119.414 18.5858C119.789 18.9609 120 19.4696 120 20V30H40V20Z" fill="white"/>
<path d="M48 5C48 3.67392 48.5268 2.40215 49.4645 1.46447C50.4021 0.526784 51.6739 0 53 0H59C60.3261 0 61.5979 0.526784 62.5355 1.46447C63.4732 2.40215 64 3.67392 64 5V30H48V5ZM72 5C72 3.67392 72.5268 2.40215 73.4645 1.46447C74.4021 0.526784 75.6739 0 77 0H83C84.3261 0 85.5979 0.526784 86.5355 1.46447C87.4732 2.40215 88 3.67392 88 5V30H72V5ZM96 5C96 3.67392 96.5268 2.40215 97.4645 1.46447C98.4021 0.526784 99.6739 0 101 0H107C107.657 0 108.307 0.129328 108.913 0.380602C109.52 0.631875 110.071 1.00017 110.536 1.46447C111 1.92876 111.368 2.47995 111.619 3.08658C111.871 3.69321 112 4.34339 112 5V30H96V5Z" fill="white"/>
</mask>
<g mask="url(#mask1_145_10125)">
<path d="M30 -22H130V30H30V-22Z" fill="#008819"/>
<path d="M30 -22H130V30H30V-22Z" fill="white" fill-opacity="0.3"/>
<path d="M30 -22H130V18H30V-22Z" fill="white" fill-opacity="0.6"/>
<path d="M58 8C58 6.89543 57.1046 6 56 6C54.8954 6 54 6.89543 54 8V12C54 13.1046 54.8954 14 56 14C57.1046 14 58 13.1046 58 12V8Z" fill="white" fill-opacity="0.6"/>
<path d="M82 8C82 6.89543 81.1046 6 80 6C78.8954 6 78 6.89543 78 8V12C78 13.1046 78.8954 14 80 14C81.1046 14 82 13.1046 82 12V8Z" fill="white" fill-opacity="0.6"/>
<path d="M106 8C106 6.89543 105.105 6 104 6C102.895 6 102 6.89543 102 8V12C102 13.1046 102.895 14 104 14C105.105 14 106 13.1046 106 12V8Z" fill="white" fill-opacity="0.6"/>
</g>
<mask id="mask2_145_10125" style="mask-type:luminance" maskUnits="userSpaceOnUse" x="14" y="22" width="130" height="120">
<path d="M126 22H32C22.0589 22 14 30.0589 14 40V124C14 133.941 22.0589 142 32 142H126C135.941 142 144 133.941 144 124V40C144 30.0589 135.941 22 126 22Z" fill="white"/>
</mask>
<g mask="url(#mask2_145_10125)">
<path d="M12 20H146V144H12V20Z" fill="#008819"/>
<path d="M28 21H24V39H28V21ZM36 21H32V55H85.42C85.8795 56.0528 86.6875 56.9153 87.7081 57.4424C88.7287 57.9696 89.8997 58.1292 91.0241 57.8945C92.1486 57.6598 93.158 57.0451 93.8825 56.1537C94.6071 55.2624 95.0026 54.1487 95.0026 53C95.0026 51.8513 94.6071 50.7376 93.8825 49.8463C93.158 48.9549 92.1486 48.3402 91.0241 48.1055C89.8997 47.8708 88.7287 48.0304 87.7081 48.5576C86.6875 49.0847 85.8795 49.9472 85.42 51H36V21Z" fill="black" fill-opacity="0.1"/>
<path d="M135 55.5796C136.053 55.1202 136.915 54.3122 137.442 53.2916C137.97 52.271 138.129 51.1 137.895 49.9755C137.66 48.8511 137.045 47.8417 136.154 47.1171C135.262 46.3926 134.149 45.9971 133 45.9971C131.851 45.9971 130.738 46.3926 129.846 47.1171C128.955 47.8417 128.34 48.8511 128.105 49.9755C127.871 51.1 128.03 52.271 128.558 53.2916C129.085 54.3122 129.947 55.1202 131 55.5796V84.9996H154V80.9996H135V55.5796Z" fill="white" fill-opacity="0.2"/>
<path d="M127 67H123V93H154V89H127V67ZM40 124.58C38.9472 124.121 38.0847 123.313 37.5576 122.292C37.0304 121.271 36.8708 120.1 37.1055 118.976C37.3402 117.851 37.9549 116.842 38.8463 116.117C39.7376 115.393 40.8513 114.997 42 114.997C43.1487 114.997 44.2624 115.393 45.1537 116.117C46.0451 116.842 46.6598 117.851 46.8945 118.976C47.1292 120.1 46.9696 121.271 46.4424 122.292C45.9153 123.313 45.0528 124.121 44 124.58V154H21V150H40V124.58Z" fill="black" fill-opacity="0.2"/>
</g>
<path d="M108 107H50C47.2386 107 45 109.239 45 112V124C45 126.761 47.2386 129 50 129H108C110.761 129 113 126.761 113 124V112C113 109.239 110.761 107 108 107Z" fill="black" fill-opacity="0.2"/>
<path d="M107 111H51C49.8954 111 49 111.895 49 113V123C49 124.105 49.8954 125 51 125H107C108.105 125 109 124.105 109 123V113C109 111.895 108.105 111 107 111Z" fill="white"/>
<path d="M59 111H63V125H59V111ZM83 111H87V125H83V111ZM71 111H75V125H71V111ZM95 111H99V125H95V111Z" fill="black" fill-opacity="0.1"/>
<path d="M56.2706 63.6797C53.7206 63.8097 51.3106 65.9197 50.0206 67.8297C48.5406 66.0697 45.9206 64.2297 43.3706 64.3597C37.8906 64.6397 34.5206 68.1597 34.7406 72.4597C35.0406 78.1797 39.6206 81.3497 44.4406 84.6997C46.1506 85.8497 49.4406 88.8497 49.8606 89.5197C50.2806 90.1897 52.0006 90.1197 52.4406 89.3897C53.8981 87.4499 55.539 85.655 57.3406 84.0297C61.7706 80.1897 66.0006 76.5597 65.7006 70.8297C65.4706 66.5297 61.7506 63.3897 56.2706 63.6797ZM114.631 64.3597C112.081 64.2197 109.461 66.0597 107.981 67.8297C106.681 65.9297 104.281 63.8097 101.731 63.6797C96.2506 63.3897 92.5306 66.5397 92.3006 70.8397C92.0006 76.5597 96.2306 80.1897 100.661 84.0297C102.261 85.3497 105.211 88.6697 105.561 89.3897C105.911 90.0897 107.621 90.2097 108.141 89.5197C108.651 88.8197 111.841 85.8497 113.561 84.6997C118.371 81.3497 122.961 78.1797 123.261 72.4597C123.481 68.1597 120.111 64.6397 114.631 64.3597Z" fill="#4FD0FF"/>
<path d="M109 118.5C109.167 116 109.7 110.2 112.5 107C114.9 109.8 116.167 115.833 116 118.5V120L115 121L114 122L112.5 122.5L111 122L110 121L109 120V118.5Z" fill="#4FD0FF"/>
<path d="M40 104.5C40.1667 102 40.7 96.2 43.5 93C45.9 95.8 47.1667 101.833 47 104.5V106L46 107L45 108L43.5 108.5L42 108L41 107L40 106V104.5Z" fill="#4FD0FF"/>
<path d="M101 101.419C101.119 99.8065 101.499 96.0645 103.495 94C105.206 95.8065 106.108 99.6989 105.99 101.419V102.387L105.277 103.032L104.564 103.677L103.495 104L102.426 103.677L101.713 103.032L101 102.387V101.419Z" fill="#4FD0FF"/>
</svg>
